<svg id="svg" version="1.1" xmlns="http://www.w3.org/2000/svg" style="display: block;" viewBox="0 0 110 105"><path d="M0 0 C36.3 0 72.6 0 110 0 C110 34.65 110 69.3 110 105 C73.7 105 37.4 105 0 105 C0 70.35 0 35.7 0 0 Z " transform="translate(0,0)" style="fill: #000000;"/><path d="M0 0 C2.5625 2.0625 2.5625 2.0625 4 4 C4 4.66 4 5.32 4 6 C5.11375 6.6496875 5.11375 6.6496875 6.25 7.3125 C11.47339829 10.51776713 14.14023279 15.25997776 16 21 C16.30635586 23.73236307 16.47842229 26.15677798 16.4375 28.875 C16.43065186 29.57681396 16.42380371 30.27862793 16.41674805 31.00170898 C16.23694992 36.82595613 15.0852286 41.10828886 12 46 C11.649375 46.62132812 11.29875 47.24265625 10.9375 47.8828125 C7.11495578 54.01481052 1.34455914 57.557249 -5.1875 60.375 C-16.24393293 62.18752999 -24.61702327 61.73366928 -33.875 55.4375 C-37 53 -37 53 -38 51 C-38.763125 50.62875 -39.52625 50.2575 -40.3125 49.875 C-44.76400338 46.76929997 -46.32245796 42.03262612 -48 37 C-49.04451616 26.7566199 -48.40889508 19.85491584 -42.7265625 11.0625 C-42.15679687 10.381875 -41.58703125 9.70125 -41 9 C-40.34 9 -39.68 9 -39 9 C-38.814375 8.278125 -38.62875 7.55625 -38.4375 6.8125 C-35.95322088 1.95195389 -31.84871624 -0.20769304 -26.9375 -2.3125 C-17.99064759 -3.87464883 -8.25772025 -4.30127406 0 0 Z " transform="translate(70,24)" style="fill: #202122;"/><path d="M0 0 C2.45840605 -0.02691685 4.91651882 -0.04679802 7.375 -0.0625 C8.07367188 -0.07087891 8.77234375 -0.07925781 9.4921875 -0.08789062 C14.7734375 -0.11328125 14.7734375 -0.11328125 17 1 C17.72693904 2.97888961 18.39816251 4.97954558 19 7 C17.02 7.33 15.04 7.66 13 8 C12.34 10.31 11.68 12.62 11 15 C11.68707031 15.13277344 12.37414062 15.26554687 13.08203125 15.40234375 C13.98308594 15.57894531 14.88414063 15.75554688 15.8125 15.9375 C16.70582031 16.11152344 17.59914063 16.28554688 18.51953125 16.46484375 C21 17 21 17 24 18 C23.34 21.3 22.68 24.6 22 28 C21.34 28 20.68 28 20 28 C20 28.66 20 29.32 20 30 C19.34 30 18.68 30 18 30 C17.67 30.99 17.34 31.98 17 33 C11.75068949 36.87992516 8.27983824 38.13204127 1.8125 38.0625 C0.18248047 38.04896484 0.18248047 38.04896484 -1.48046875 38.03515625 C-2.31191406 38.02355469 -3.14335938 38.01195312 -4 38 C-4.37125 36.7315625 -4.37125 36.7315625 -4.75 35.4375 C-5.73344382 32.7330295 -6.61792333 30.92465564 -8.125 28.5625 C-10.27034511 24.98428601 -10.2360937 22.17098873 -10 18 C-10.32483418 16.66457061 -10.6550855 15.33038449 -11 14 C-10.67 13.34 -10.34 12.68 -10 12 C-9.34 12 -8.68 12 -8 12 C-7.9071875 11.13375 -7.9071875 11.13375 -7.8125 10.25 C-6.68373786 7.12419715 -4.58616702 6.01847182 -2 4 C-0.84070962 1.94271532 -0.84070962 1.94271532 0 0 Z " transform="translate(49,38)" style="fill: #16191E;"/><path d="M0 0 C1 2 1 2 0 5 C0.99 5 1.98 5 3 5 C2.0022242 7.99332739 1.2477975 8.94766315 -1 11 C-0.34 11 0.32 11 1 11 C1 11.99 1 12.98 1 14 C1.969375 14.144375 2.93875 14.28875 3.9375 14.4375 C7 15 7 15 8 16 C8.07313567 18.53049402 8.09247527 21.03304837 8.0625 23.5625 C8.05798828 24.27341797 8.05347656 24.98433594 8.04882812 25.71679688 C8.03700864 27.47790013 8.01907263 29.23896036 8 31 C8.66 31 9.32 31 10 31 C10.2475 31.763125 10.495 32.52625 10.75 33.3125 C11.7874057 36.10595884 11.7874057 36.10595884 14.125 37.5625 C14.74375 38.036875 15.3625 38.51125 16 39 C16 40.32 16 41.64 16 43 C16.495 42.835 16.99 42.67 17.5 42.5 C20 42 20 42 23.875 42.125 C29.0799112 42.18304734 32.51689925 40.44190351 36.25 36.8125 C36.8275 36.214375 37.405 35.61625 38 35 C38.66 35 39.32 35 40 35 C40 34.34 40 33.68 40 33 C40.66 33 41.32 33 42 33 C42.66 29.7 43.32 26.4 44 23 C42.411875 22.690625 40.82375 22.38125 39.1875 22.0625 C36.35524518 21.51076205 33.74221066 20.91407022 31 20 C31.33 17.69 31.66 15.38 32 13 C38.12877687 12.61695145 43.77330285 13.42895592 48.7109375 17.36328125 C50.59154412 19.75108178 50.40849471 22.0754958 50.28515625 25.01953125 C49.86635884 27.92816529 48.74701984 29.65055953 47 32 C46.59007812 32.60199219 46.18015625 33.20398438 45.7578125 33.82421875 C42.31847994 38.84076003 42.31847994 38.84076003 40 40 C39.67 40.99 39.34 41.98 39 43 C37.68 42.67 36.36 42.34 35 42 C34.34 43.98 33.68 45.96 33 48 C32.01 47.505 32.01 47.505 31 47 C29.65904652 47.30121859 28.32600802 47.63862538 27 48 C24.19323712 48.17155565 21.43279267 48.2763171 18.625 48.3125 C17.8825 48.34150391 17.14 48.37050781 16.375 48.40039062 C11.11656762 48.46077898 8.17070208 47.47988919 4 44 C3.67 43.34 3.34 42.68 3 42 C2.236875 41.62875 1.47375 41.2575 0.6875 40.875 C-3.76400338 37.76929997 -5.32245796 33.03262612 -7 28 C-8.16487309 16.57630144 -6.99966042 9.42811404 0 0 Z " transform="translate(29,33)" style="fill: #87753C;"/><path d="M0 0 C0 0.66 0 1.32 0 2 C2.23570226 2.23570226 2.23570226 2.23570226 4 0 C5.00287529 1.31030432 6.00222825 2.62330527 7 3.9375 C7.556875 4.66839844 8.11375 5.39929687 8.6875 6.15234375 C10 8 10 8 10 9 C8.741875 9.226875 7.48375 9.45375 6.1875 9.6875 C2.61227436 10.56229597 2.61227436 10.56229597 0.25 13.4375 C-0.1625 14.283125 -0.575 15.12875 -1 16 C-2.32392972 17.01241685 -3.65599167 18.01439389 -5 19 C-5.33 19.99 -5.66 20.98 -6 22 C-6.66 22 -7.32 22 -8 22 C-8.08226668 25.04386724 -7.97608217 27.07175348 -7 30 C-7.04640625 31.18142578 -7.04640625 31.18142578 -7.09375 32.38671875 C-6.9814717 35.51647641 -6.09473454 37.14131965 -4.5 39.8125 C-4.0359375 40.60269531 -3.571875 41.39289063 -3.09375 42.20703125 C-2.7328125 42.79871094 -2.371875 43.39039063 -2 44 C-4.46800047 42.84826645 -6.04783565 41.95216435 -8 40 C-8 38.68 -8 37.36 -8 36 C-8.66 36 -9.32 36 -10 36 C-10.33 31.05 -10.66 26.1 -11 21 C-12.98 20.34 -14.96 19.68 -17 19 C-17 18.01 -17 17.02 -17 16 C-17.66 16 -18.32 16 -19 16 C-18.0022242 13.00667261 -17.2477975 12.05233685 -15 10 C-15.99 10 -16.98 10 -18 10 C-17.46930939 6.17902761 -16.50298434 3.93828597 -14 1 C-13.01 1.33 -12.02 1.66 -11 2 C-11 2.66 -11 3.32 -11 4 C-9.68 3.67 -8.36 3.34 -7 3 C-7.66 3 -8.32 3 -9 3 C-9 2.34 -9 1.68 -9 1 C-6.04335481 -0.4783226 -3.25770263 -0.06032783 0 0 Z " transform="translate(47,28)" style="fill: #332E20;"/><path d="M0 0 C1 2 1 2 0 5 C0.99 5 1.98 5 3 5 C2.0022242 7.99332739 1.2477975 8.94766315 -1 11 C-0.34 11 0.32 11 1 11 C1 11.99 1 12.98 1 14 C1.969375 14.144375 2.93875 14.28875 3.9375 14.4375 C7 15 7 15 8 16 C8.68184592 21.56840836 7.50456279 24.72370319 4.43359375 29.1953125 C2.52021945 31.60397443 0.63477648 33.40526687 -2 35 C-2.99 34.67 -3.98 34.34 -5 34 C-8.0723891 27.10535055 -8.94770945 17.34424136 -6.30419922 10.09082031 C-4.56210617 6.48547912 -2.38237807 3.2089174 0 0 Z " transform="translate(29,33)" style="fill: #857438;"/><path d="M0 0 C6.12877687 -0.38304855 11.77330285 0.42895592 16.7109375 4.36328125 C18.59154412 6.75108178 18.40849471 9.0754958 18.28515625 12.01953125 C17.86635884 14.92816529 16.74701984 16.65055953 15 19 C14.59007813 19.60199219 14.18015625 20.20398438 13.7578125 20.82421875 C10.31847994 25.84076003 10.31847994 25.84076003 8 27 C7.67 27.99 7.34 28.98 7 30 C5.68 29.67 4.36 29.34 3 29 C2.34 30.98 1.68 32.96 1 35 C0.505 33.515 0.505 33.515 0 32 C-0.99 32 -1.98 32 -3 32 C-3 31.01 -3 30.02 -3 29 C-1.28515625 27.68359375 -1.28515625 27.68359375 0.9375 26.4375 C4.06087402 24.79661289 4.06087402 24.79661289 6 22 C6.66 22 7.32 22 8 22 C8 21.34 8 20.68 8 20 C8.66 20 9.32 20 10 20 C10.66 16.7 11.32 13.4 12 10 C9.6178125 9.5359375 9.6178125 9.5359375 7.1875 9.0625 C4.35524518 8.51076205 1.74221066 7.91407022 -1 7 C-0.67 4.69 -0.34 2.38 0 0 Z " transform="translate(61,46)" style="fill: #8B7943;"/><path d="M0 0 C2 2 2 2 2.125 5.375 C2.08375 6.57125 2.0425 7.7675 2 9 C2 10.32 2 11.64 2 13 C-3.07798345 19.00125317 -9.18596564 23.63564479 -17 25 C-24.59389021 25.50207539 -31.27011138 25.84565064 -38 22 C-34.1584024 19.43219529 -30.1860825 19.77311118 -25.75 19.875 C-25.00492188 19.88402344 -24.25984375 19.89304687 -23.4921875 19.90234375 C-21.66131941 19.92581642 -19.83061762 19.96168475 -18 20 C-17.67 19.34 -17.34 18.68 -17 18 C-16.67 18.66 -16.34 19.32 -16 20 C-15.34 18.35 -14.68 16.7 -14 15 C-12.68 15.33 -11.36 15.66 -10 16 C-9.9175 15.4225 -9.835 14.845 -9.75 14.25 C-8.78005089 11.34015266 -7.22228899 10.09530105 -5 8 C-2.66954393 5.27003717 -1.13897735 3.41693206 0 0 Z " transform="translate(78,60)" style="fill: #2D2825;"/><path d="M0 0 C0.33 0.99 0.66 1.98 1 3 C1.68707031 3.09796875 2.37414063 3.1959375 3.08203125 3.296875 C3.98308594 3.44640625 4.88414063 3.5959375 5.8125 3.75 C6.70582031 3.88921875 7.59914063 4.0284375 8.51953125 4.171875 C11.50572658 5.168841 12.38380344 6.3582435 14 9 C13.34 9 12.68 9 12 9 C12 9.66 12 10.32 12 11 C11.34 11 10.68 11 10 11 C10 11.66 10 12.32 10 13 C3.5 16 3.5 16 -1 16 C-1 15.01 -1 14.02 -1 13 C-1.66 13 -2.32 13 -3 13 C-2.0022242 10.00667261 -1.2477975 9.05233685 1 7 C0.01 7 -0.98 7 -2 7 C-1.125 2.25 -1.125 2.25 0 0 Z " transform="translate(31,31)" style="fill: #5B5134;"/><path d="M0 0 C5.65394631 -0.34615998 9.03006806 0.56574762 14 3 C14 5.31 14 7.62 14 10 C8.86496656 9.35812082 4.0056546 8.31727753 -1 7 C-0.67 4.69 -0.34 2.38 0 0 Z " transform="translate(61,46)" style="fill: #949A7F;"/><path d="M0 0 C0.33 0 0.66 0 1 0 C1 2.64 1 5.28 1 8 C1.66 8 2.32 8 3 8 C3.2475 8.763125 3.495 9.52625 3.75 10.3125 C5.10995558 13.2364045 6.31585826 14.30004356 9 16 C8.67 17.32 8.34 18.64 8 20 C5 19 5 19 4 17 C1.47266765 16.34444881 1.47266765 16.34444881 -1 16 C-1 15.01 -1 14.02 -1 13 C-4.19902639 12.91113816 -6.92677456 13.08941469 -10 14 C-10.33 13.01 -10.66 12.02 -11 11 C-10.1646875 10.938125 -10.1646875 10.938125 -9.3125 10.875 C-5.11128619 9.28535153 -2.80190389 5.45106418 -0.6875 1.625 C-0.460625 1.08875 -0.23375 0.5525 0 0 Z " transform="translate(36,56)" style="fill: #796A3E;"/><path d="M0 0 C0.99 0 1.98 0 3 0 C4.010625 -0.04125 5.02125 -0.0825 6.0625 -0.125 C9 0 9 0 11 2 C11.66 1.67 12.32 1.34 13 1 C11.88081459 6.22286525 9.6539919 8.63511281 5.75390625 11.99609375 C4.88572266 12.49302734 4.88572266 12.49302734 4 13 C3.01 12.67 2.02 12.34 1 12 C0.03929566 9.11788698 -0.10581883 7.30149956 -0.0625 4.3125 C-0.05347656 3.50425781 -0.04445313 2.69601563 -0.03515625 1.86328125 C-0.02355469 1.24839844 -0.01195313 0.63351563 0 0 Z " transform="translate(23,55)" style="fill: #CDBE7D;"/><path d="M0 0 C1 2 1 2 0.25 4.5625 C-1 7 -1 7 -4 8 C-4.0825 8.763125 -4.165 9.52625 -4.25 10.3125 C-5 13 -5 13 -6.875 14.8125 C-9 16 -9 16 -12 16 C-12 16.66 -12 17.32 -12 18 C-13.98 18 -15.96 18 -18 18 C-18 18.66 -18 19.32 -18 20 C-18.680625 19.835 -19.36125 19.67 -20.0625 19.5 C-23.09913771 18.89004493 -23.09913771 18.89004493 -26.625 19.0625 C-30 19 -30 19 -33 17 C-29.43954823 15.81318274 -26.56191663 15.90310168 -22.8125 15.9375 C-21.54019531 15.94652344 -20.26789062 15.95554687 -18.95703125 15.96484375 C-17.49330078 15.98224609 -17.49330078 15.98224609 -16 16 C-15.67 15.34 -15.34 14.68 -15 14 C-14.67 14.66 -14.34 15.32 -14 16 C-13.34 14.35 -12.68 12.7 -12 11 C-10.68 11.33 -9.36 11.66 -8 12 C-7.9175 11.4225 -7.835 10.845 -7.75 10.25 C-6.78451545 7.35354636 -5.20844452 6.07853602 -3 4 C-1.97676564 2.68441297 -0.96873032 1.35622245 0 0 Z " transform="translate(76,64)" style="fill: #5B4B2F;"/><path d="M0 0 C0 0.66 0 1.32 0 2 C2.23570226 2.23570226 2.23570226 2.23570226 4 0 C5.00287529 1.31030432 6.00222825 2.62330527 7 3.9375 C7.556875 4.66839844 8.11375 5.39929687 8.6875 6.15234375 C10 8 10 8 10 9 C8.37585622 9.19477739 6.75063577 9.38059458 5.125 9.5625 C4.22007813 9.66691406 3.31515625 9.77132812 2.3828125 9.87890625 C0 10 0 10 -2 9 C-2 8.01 -2 7.02 -2 6 C-3.65 5.67 -5.3 5.34 -7 5 C-7 4.34 -7 3.68 -7 3 C-7.66 3 -8.32 3 -9 3 C-9 2.34 -9 1.68 -9 1 C-6.04335481 -0.4783226 -3.25770263 -0.06032783 0 0 Z " transform="translate(47,28)" style="fill: #2F2F25;"/><path d="M0 0 C0.763125 0.20625 1.52625 0.4125 2.3125 0.625 C2.3125 1.615 2.3125 2.605 2.3125 3.625 C3.3025 3.955 4.2925 4.285 5.3125 4.625 C5.3125 5.285 5.3125 5.945 5.3125 6.625 C4.6525 6.625 3.9925 6.625 3.3125 6.625 C2.9825 7.945 2.6525 9.265 2.3125 10.625 C1.7246875 9.7278125 1.7246875 9.7278125 1.125 8.8125 C-0.89442295 6.3752654 -2.98996282 5.22894103 -5.6875 3.625 C-5.6875 2.965 -5.6875 2.305 -5.6875 1.625 C-2.6875 -0.375 -2.6875 -0.375 0 0 Z " transform="translate(32.6875,68.375)" style="fill: #908945;"/><path d="M0 0 C2 1 2 1 4 3 C4.60358974 8.34608054 4.43377625 11.64174553 1 16 C0.34 16.33 -0.32 16.66 -1 17 C-1 16.01 -1 15.02 -1 14 C-0.34 14 0.32 14 1 14 C1 13.01 1 12.02 1 11 C-0.32 11.33 -1.64 11.66 -3 12 C-2.67 10.35 -2.34 8.7 -2 7 C-1.34 7 -0.68 7 0 7 C0 4.69 0 2.38 0 0 Z " transform="translate(75,49)" style="fill: #696540;"/><path d="M0 0 C2.97 0 5.94 0 9 0 C9 2.31 9 4.62 9 7 C6.69 6.67 4.38 6.34 2 6 C2 5.34 2 4.68 2 4 C1.01 3.67 0.02 3.34 -1 3 C-0.67 2.01 -0.34 1.02 0 0 Z " transform="translate(66,49)" style="fill: #AFB498;"/><path d="M0 0 C1.1446875 0.2475 1.1446875 0.2475 2.3125 0.5 C5.03596236 1.09145396 5.03596236 1.09145396 8 1 C6.72210402 6.96351455 3.66283606 9.48417174 -1 13 C-1 11.35 -1 9.7 -1 8 C0.32 7.34 1.64 6.68 3 6 C2.505 5.566875 2.01 5.13375 1.5 4.6875 C0 3 0 3 0 0 Z " transform="translate(28,55)" style="fill: #B6A567;"/><path d="M0 0 C0.33 0 0.66 0 1 0 C1 1.65 1 3.3 1 5 C1.66 5 2.32 5 3 5 C2.34 9.29 1.68 13.58 1 18 C0.01 18.33 -0.98 18.66 -2 19 C-2.05394705 16.39555652 -2.09364469 13.79223002 -2.125 11.1875 C-2.14175781 10.44951172 -2.15851562 9.71152344 -2.17578125 8.95117188 C-2.21074628 5.08753574 -2.19397555 3.29096332 0 0 Z " transform="translate(24,42)" style="fill: #938864;"/><path d="M0 0 C1.32 0 2.64 0 4 0 C4 0.66 4 1.32 4 2 C5.32 1.67 6.64 1.34 8 1 C8.33 1.99 8.66 2.98 9 4 C10.65 4.33 12.3 4.66 14 5 C14.33 4.34 14.66 3.68 15 3 C15.66 4.32 16.32 5.64 17 7 C15.37585622 7.19477739 13.75063577 7.38059458 12.125 7.5625 C11.22007813 7.66691406 10.31515625 7.77132812 9.3828125 7.87890625 C7 8 7 8 5 7 C5 6.01 5 5.02 5 4 C3.35 3.67 1.7 3.34 0 3 C0 2.01 0 1.02 0 0 Z " transform="translate(40,30)" style="fill: #39392D;"/><path d="M0 0 C1 2 1 2 0.25 4.5625 C-1 7 -1 7 -4 8 C-4.0825 8.763125 -4.165 9.52625 -4.25 10.3125 C-5.15269355 13.54715191 -6.13593461 14.35099265 -9 16 C-9.66 16 -10.32 16 -11 16 C-10.67 14.68 -10.34 13.36 -10 12 C-9.34 12 -8.68 12 -8 12 C-7.9175 11.4225 -7.835 10.845 -7.75 10.25 C-6.78451545 7.35354636 -5.20844452 6.07853602 -3 4 C-1.97676564 2.68441297 -0.96873032 1.35622245 0 0 Z " transform="translate(76,64)" style="fill: #514321;"/><path d="M0 0 C1 2 1 2 0 5 C0.99 5 1.98 5 3 5 C2 8 2 8 0 9 C-0.98334755 11.85170789 -1 13.89640609 -1 17 C-1.33 16.01 -1.66 15.02 -2 14 C-2.66 14 -3.32 14 -4 14 C-4.49940808 7.88225104 -3.24900602 4.97504047 0 0 Z " transform="translate(29,33)" style="fill: #867C4D;"/><path d="M0 0 C2.0625 0.4375 2.0625 0.4375 4 1 C-0.45029503 4.52954433 -3.54880215 5.12313116 -9.1875 5.0625 C-10.81751953 5.04896484 -10.81751953 5.04896484 -12.48046875 5.03515625 C-13.31191406 5.02355469 -14.14335938 5.01195313 -15 5 C-14.67 3.68 -14.34 2.36 -14 1 C-12.02 1.66 -10.04 2.32 -8 3 C-7.34 2.34 -6.68 1.68 -6 1 C-4.33382885 0.95936168 -2.66611905 0.957279 -1 1 C-0.67 0.67 -0.34 0.34 0 0 Z " transform="translate(60,71)" style="fill: #3D321F;"/><path d="M0 0 C1.32 0.33 2.64 0.66 4 1 C3.34 4.3 2.68 7.6 2 11 C1.34 11 0.68 11 0 11 C0 11.66 0 12.32 0 13 C-0.66 13 -1.32 13 -2 13 C-2.33 13.99 -2.66 14.98 -3 16 C-3.66 16 -4.32 16 -5 16 C-5 15.34 -5 14.68 -5 14 C-4.34 14 -3.68 14 -3 14 C-3 13.01 -3 12.02 -3 11 C-2.34 11 -1.68 11 -1 11 C0.00335818 7.87844121 -0.19329077 6.12599828 -1 3 C-0.67 2.01 -0.34 1.02 0 0 Z " transform="translate(69,55)" style="fill: #453E1C;"/><path d="M0 0 C-0.60714286 5.46428571 -0.60714286 5.46428571 -2.375 7.875 C-4 9 -4 9 -7 9 C-7 8.01 -7 7.02 -7 6 C-7.66 6 -8.32 6 -9 6 C-7.28011918 0.84035755 -5.43136944 -0.44038131 0 0 Z " transform="translate(37,38)" style="fill: #746630;"/><path d="M0 0 C0.66 0 1.32 0 2 0 C2 0.66 2 1.32 2 2 C3.65 1.67 5.3 1.34 7 1 C7.33 2.65 7.66 4.3 8 6 C6.02 6.99 6.02 6.99 4 8 C3.67 7.34 3.34 6.68 3 6 C-0.02934491 5.34227572 -0.02934491 5.34227572 -3 5 C-2.67 4.01 -2.34 3.02 -2 2 C-1.34 2 -0.68 2 0 2 C0 1.34 0 0.68 0 0 Z " transform="translate(29,50)" style="fill: #927F4B;"/><path d="M0 0 C0 1.32 0 2.64 0 4 C-0.99 4.495 -0.99 4.495 -2 5 C-2 5.66 -2 6.32 -2 7 C-1.34 7 -0.68 7 0 7 C-0.33 7.66 -0.66 8.32 -1 9 C-4 8 -4 8 -5 6 C-5.99 6.495 -5.99 6.495 -7 7 C-6.61402985 4.20171644 -6.19863427 3.1794116 -4.0625 1.25 C-2 0 -2 0 0 0 Z " transform="translate(40,24)" style="fill: #1C1C1B;"/><path d="M0 0 C2 2 2 2 2 5.3125 C0.69308641 10.13174388 -0.99299454 11.18657063 -5 14 C-5.33 13.34 -5.66 12.68 -6 12 C-5.01 11.34 -4.02 10.68 -3 10 C-1.98675674 7.59027402 -1.98675674 7.59027402 -1.3125 4.875 C-1.06113281 3.96492188 -0.80976562 3.05484375 -0.55078125 2.1171875 C-0.36902344 1.41851562 -0.18726562 0.71984375 0 0 Z " transform="translate(78,60)" style="fill: #37332E;"/><path d="M0 0 C0.33 0 0.66 0 1 0 C1 2.64 1 5.28 1 8 C1.66 8 2.32 8 3 8 C2.67 8.66 2.34 9.32 2 10 C1.01 9.67 0.02 9.34 -1 9 C-1.99 9 -2.98 9 -4 9 C-2.80100302 5.9168649 -1.52299523 2.93720508 0 0 Z " transform="translate(36,56)" style="fill: #5A4B28;"/><path d="M0 0 C0.33 0.99 0.66 1.98 1 3 C1.99 3.33 2.98 3.66 4 4 C4 4.66 4 5.32 4 6 C3.34 6 2.68 6 2 6 C1.67 7.32 1.34 8.64 1 10 C-2 6.25 -2 6.25 -2 4 C-1.34 4 -0.68 4 0 4 C0 2.68 0 1.36 0 0 Z " transform="translate(34,69)" style="fill: #87834C;"/><path d="M0 0 C1.32 1.32 2.64 2.64 4 4 C-2.28571429 6.42857143 -2.28571429 6.42857143 -6 5 C-6 4.34 -6 3.68 -6 3 C-5.38125 2.87625 -4.7625 2.7525 -4.125 2.625 C-1.80879168 2.12802644 -1.80879168 2.12802644 0 0 Z " transform="translate(31,64)" style="fill: #7C6F32;"/><path d="M0 0 C0.33 0.66 0.66 1.32 1 2 C3.32156597 2.40729228 5.6568787 2.74438677 8 3 C8 3.99 8 4.98 8 6 C5.69 5.67 3.38 5.34 1 5 C0.67 3.35 0.34 1.7 0 0 Z " transform="translate(67,50)" style="fill: #C9C7B2;"/><path d="M0 0 C-0.375 2.9375 -0.375 2.9375 -1 6 C-1.99 6.495 -1.99 6.495 -3 7 C-3 6.01 -3 5.02 -3 4 C-3.99 4 -4.98 4 -6 4 C-6 3.01 -6 2.02 -6 1 C-4 0 -4 0 0 0 Z " transform="translate(64,74)" style="fill: #927D51;"/><path d="M0 0 C0 0.99 0 1.98 0 3 C-0.66 3 -1.32 3 -2 3 C-2 4.32 -2 5.64 -2 7 C-3.32 7.33 -4.64 7.66 -6 8 C-3.81818182 0 -3.81818182 0 0 0 Z " transform="translate(76,60)" style="fill: #9A8D47;"/><path d="M0 0 C2.88437779 1.29299694 4.87219421 2.65941363 7 5 C6.67 5.66 6.34 6.32 6 7 C0.06 5.515 0.06 5.515 -6 4 C-6 3.67 -6 3.34 -6 3 C-4.02 3 -2.04 3 0 3 C0 2.01 0 1.02 0 0 Z " transform="translate(68,42)" style="fill: #3F4235;"/><path d="M0 0 C1.32 0.33 2.64 0.66 4 1 C4 1.66 4 2.32 4 3 C4.99 2.67 5.98 2.34 7 2 C6.67 3.32 6.34 4.64 6 6 C3.83125748 5.49396008 2.00032373 5.00016187 0 4 C0 2.68 0 1.36 0 0 Z " transform="translate(36,75)" style="fill: #6F6734;"/><path d="M0 0 C0.99 0.33 1.98 0.66 3 1 C3 4.63 3 8.26 3 12 C2.34 12 1.68 12 1 12 C0.03929566 9.11788698 -0.10581883 7.30149956 -0.0625 4.3125 C-0.05347656 3.50425781 -0.04445313 2.69601563 -0.03515625 1.86328125 C-0.02355469 1.24839844 -0.01195313 0.63351563 0 0 Z " transform="translate(23,55)" style="fill: #B7AB6C;"/><path d="M0 0 C3.63 0 7.26 0 11 0 C11 0.99 11 1.98 11 3 C11.66 3 12.32 3 13 3 C13 3.66 13 4.32 13 5 C11.68 5 10.36 5 9 5 C9 4.01 9 3.02 9 2 C6.03 2 3.06 2 0 2 C0 1.34 0 0.68 0 0 Z " transform="translate(47,75)" style="fill: #80663D;"/><path d="M0 0 C0.33 0.99 0.66 1.98 1 3 C0.34 3 -0.32 3 -1 3 C-1 3.66 -1 4.32 -1 5 C-3.31 5.66 -5.62 6.32 -8 7 C-8 6.01 -8 5.02 -8 4 C-5.09399739 2.74335022 -3.20395416 2 0 2 C0 1.34 0 0.68 0 0 Z " transform="translate(65,66)" style="fill: #171D0F;"/><path d="M0 0 C1 2 1 2 0 5 C0.99 5 1.98 5 3 5 C2.67 5.99 2.34 6.98 2 8 C-0.0625 8.6875 -0.0625 8.6875 -2 9 C-2.25 3.375 -2.25 3.375 0 0 Z " transform="translate(29,33)" style="fill: #7C704C;"/><path d="M0 0 C-1.0975223 2.99324263 -1.67682892 3.84610901 -4.625 5.25 C-5.40875 5.4975 -6.1925 5.745 -7 6 C-6.6875 4.125 -6.6875 4.125 -6 2 C-3 0 -3 0 0 0 Z " transform="translate(72,74)" style="fill: #3B3922;"/><path d="M0 0 C1.65 0.99 3.3 1.98 5 3 C4.67 4.32 4.34 5.64 4 7 C1 6 1 6 0 4 C-2.01669827 2.86649466 -2.01669827 2.86649466 -4 2 C-2.68 2 -1.36 2 0 2 C0 1.34 0 0.68 0 0 Z " transform="translate(40,69)" style="fill: #695A2E;"/><path d="M0 0 C2.31 0 4.62 0 7 0 C7 0.33 7 0.66 7 1 C5.35 1.33 3.7 1.66 2 2 C2 3.65 2 5.3 2 7 C1.01 7 0.02 7 -1 7 C-0.67 4.69 -0.34 2.38 0 0 Z " transform="translate(61,46)" style="fill: #6D745E;"/><path d="M0 0 C0.66 0 1.32 0 2 0 C2 0.66 2 1.32 2 2 C3.65 1.67 5.3 1.34 7 1 C4.93243723 3.7972908 3.85559629 4.02692273 0.3125 4.6875 C-0.780625 4.790625 -1.87375 4.89375 -3 5 C-2.67 4.01 -2.34 3.02 -2 2 C-1.34 2 -0.68 2 0 2 C0 1.34 0 0.68 0 0 Z " transform="translate(29,50)" style="fill: #A59153;"/><path d="M0 0 C1.98 0.495 1.98 0.495 4 1 C3.67 2.65 3.34 4.3 3 6 C1.68 5.67 0.36 5.34 -1 5 C-0.67 3.35 -0.34 1.7 0 0 Z " transform="translate(69,55)" style="fill: #352D17;"/><path d="M0 0 C2.10353495 -0.0810206 4.20795952 -0.13919907 6.3125 -0.1875 C7.48425781 -0.22230469 8.65601563 -0.25710937 9.86328125 -0.29296875 C13 0 13 0 16 3 C10.72 2.34 5.44 1.68 0 1 C0 0.67 0 0.34 0 0 Z " transform="translate(48,21)" style="fill: #353630;"/><path d="M0 0 C5.94 1.485 5.94 1.485 12 3 C12 3.33 12 3.66 12 4 C8.04 4 4.08 4 0 4 C0 2.68 0 1.36 0 0 Z " transform="translate(45,72)" style="fill: #4F3B28;"/><path d="M0 0 C-0.33 0.99 -0.66 1.98 -1 3 C-3.31 3 -5.62 3 -8 3 C-8 2.34 -8 1.68 -8 1 C-5.07175348 0.02391783 -3.04386724 -0.08226668 0 0 Z " transform="translate(56,77)" style="fill: #998047;"/><path d="M0 0 C1.32 0.66 2.64 1.32 4 2 C4 3.32 4 4.64 4 6 C1.525 5.01 1.525 5.01 -1 4 C-0.67 2.68 -0.34 1.36 0 0 Z " transform="translate(33,47)" style="fill: #766537;"/><path d="M0 0 C2.64 0.66 5.28 1.32 8 2 C7.67 2.99 7.34 3.98 7 5 C3.34683329 3.75023244 2.21934164 3.32901247 0 0 Z " transform="translate(37,32)" style="fill: #2A2918;"/></svg>