<svg id="svg" version="1.1" xmlns="http://www.w3.org/2000/svg" style="display: block;" viewBox="0 0 140 115"><path d="M0 0 C46.2 0 92.4 0 140 0 C140 37.95 140 75.9 140 115 C93.8 115 47.6 115 0 115 C0 77.05 0 39.1 0 0 Z " transform="translate(0,0)" style="fill: #000000;"/><path d="M0 0 C2.79192205 -0.05380578 5.5828141 -0.09357669 8.375 -0.125 C9.1690625 -0.14175781 9.963125 -0.15851562 10.78125 -0.17578125 C12.85492015 -0.19335473 14.92883241 -0.10335168 17 0 C17.66 0.66 18.32 1.32 19 2 C21.03408189 2.4934134 21.03408189 2.4934134 23.3125 2.8125 C27.9834479 3.80172941 29.92736328 5.21829327 33 9 C33.67417969 9.80695312 34.34835938 10.61390625 35.04296875 11.4453125 C41.80690084 19.6578035 42.99348212 25.29376912 42 36 C39.60857019 43.88588561 32.94391075 50.17754349 25.90625 54.1953125 C19.33081044 56.97101035 13.37998536 53.86378767 7.18359375 51.38671875 C5.01393139 50.4416511 2.87279881 49.42892099 0.76171875 48.359375 C-1.89189581 46.88846638 -1.89189581 46.88846638 -4.625 46.5625 C-7.75699074 45.82071272 -9.02095888 44.49212585 -11 42 C-11 41.01 -11 40.02 -11 39 C-11.5775 38.79375 -12.155 38.5875 -12.75 38.375 C-16.04664144 36.36038579 -17.26778812 34.46442376 -19 31 C-19.33484933 27.63581066 -19.20874266 24.36887462 -19 21 C-19 20.01 -19 19.02 -19 18 C-18.34 18 -17.68 18 -17 18 C-16.9175 17.38125 -16.835 16.7625 -16.75 16.125 C-16 14 -16 14 -14 12.9375 C-13.34 12.628125 -12.68 12.31875 -12 12 C-11.67 11.01 -11.34 10.02 -11 9 C-9.35 8.67 -7.7 8.34 -6 8 C-6.33 7.01 -6.66 6.02 -7 5 C-2.25 2 -2.25 2 0 2 C0 1.34 0 0.68 0 0 Z " transform="translate(39,24)" style="fill: #181C1B;"/><path d="M0 0 C2.12493141 -0.02693575 4.24995912 -0.04636628 6.375 -0.0625 C7.55835937 -0.07410156 8.74171875 -0.08570312 9.9609375 -0.09765625 C13 0 13 0 15 1 C14.67 2.32 14.34 3.64 14 5 C14.66 5 15.32 5 16 5 C16 5.66 16 6.32 16 7 C14.02253397 7.73080266 12.01927511 8.39421747 10 9 C9.34 8.67 8.68 8.34 8 8 C8 7.01 8 6.02 8 5 C7.319375 5.350625 6.63875 5.70125 5.9375 6.0625 C2.2912211 7.22620603 -0.28489978 6.72845102 -4 6 C-4.33 6.99 -4.66 7.98 -5 9 C-5.99 9.495 -5.99 9.495 -7 10 C-7.33 10.99 -7.66 11.98 -8 13 C-6.68 12.67 -5.36 12.34 -4 12 C-4 11.34 -4 10.68 -4 10 C2.625 9.875 2.625 9.875 6 11 C6 11.66 6 12.32 6 13 C8.97 13.495 8.97 13.495 12 14 C12.042721 15.66611905 12.04063832 17.33382885 12 19 C10.40656017 20.59343983 8.76821209 20.20870742 6.5625 20.25 C1.17113533 20.19562024 -4.11954704 19.39585873 -9 17 C-9.33 16.01 -9.66 15.02 -10 14 C-11.96176115 18.18509045 -13.45467193 22.35476844 -13 27 C-10.94536915 32.45846929 -8.93841758 37.70772161 -4 41 C-1.49103314 41.45601261 -1.49103314 41.45601261 1.1875 41.625 C2.08855469 41.69976562 2.98960938 41.77453125 3.91796875 41.8515625 C4.60503906 41.90054688 5.29210937 41.94953125 6 42 C6 41.34 6 40.68 6 40 C7.0725 39.87625 8.145 39.7525 9.25 39.625 C13.41654953 38.95629193 13.41654953 38.95629193 17 37 C18.20882096 34.99983534 18.20882096 34.99983534 19 33 C19.33 32.67 19.66 32.34 20 32 C20.75124464 24.84872891 19.39712517 18.70624303 17 12 C20.465 11.505 20.465 11.505 24 11 C24.495 12.485 24.495 12.485 25 14 C26.423125 13.9690625 26.423125 13.9690625 27.875 13.9375 C31 14 31 14 33 15 C33 15.99 33 16.98 33 18 C33.66 18 34.32 18 35 18 C35 18.99 35 19.98 35 21 C35.66 21 36.32 21 37 21 C38.5796796 31.26791737 38.5796796 31.26791737 36.125 36.5625 C35.60292969 37.70912109 35.60292969 37.70912109 35.0703125 38.87890625 C34 41 34 41 32 44 C31.34 44 30.68 44 30 44 C29.79375 44.61875 29.5875 45.2375 29.375 45.875 C27.41963924 48.89692117 25.42176087 49.05494223 22 50 C10.599497 51.89490649 2.5627686 47.49951262 -7 42 C-5.68 43.32 -4.36 44.64 -3 46 C-3.99 46.495 -3.99 46.495 -5 47 C-7.5625 45.875 -7.5625 45.875 -10 44 C-10.36442233 42.33985384 -10.69972883 40.67293936 -11 39 C-12.32407669 38.31513275 -13.65909241 37.65129797 -15 37 C-19.05204302 32.49772998 -19.38962762 29.05884207 -19.140625 23.26953125 C-19.09421875 22.52058594 -19.0478125 21.77164063 -19 21 C-19 20.01 -19 19.02 -19 18 C-18.34 18 -17.68 18 -17 18 C-16.9175 17.38125 -16.835 16.7625 -16.75 16.125 C-16 14 -16 14 -14 12.9375 C-13.34 12.628125 -12.68 12.31875 -12 12 C-11.67 11.01 -11.34 10.02 -11 9 C-9.35 8.67 -7.7 8.34 -6 8 C-6.33 7.01 -6.66 6.02 -7 5 C-2.25 2 -2.25 2 0 2 C0 1.34 0 0.68 0 0 Z " transform="translate(39,24)" style="fill: #63532E;"/><path d="M0 0 C1.5778125 0.7115625 1.5778125 0.7115625 3.1875 1.4375 C5.45101884 2.42579696 7.15685611 3.02240802 9.625 3.375 C16.12102883 5.08448127 21.25307129 13.83484126 25 19 C27.03419183 25.1025755 27.06663395 32.48270952 25.19921875 38.640625 C21.65846355 45.60045996 15.23607151 51.94542883 8 55 C-2.50671072 56.56482926 -13.06708872 49.66021577 -21.83203125 44.6484375 C-22.90517578 43.83246094 -22.90517578 43.83246094 -24 43 C-24 42.01 -24 41.02 -24 40 C-23.27554687 40.39832031 -22.55109375 40.79664063 -21.8046875 41.20703125 C-19.80690596 42.30181553 -17.80405418 43.38738589 -15.796875 44.46484375 C-13 46 -13 46 -10.125 47.875 C-3.81735683 50.14575154 3.98770572 50.16622087 10.25 47.625 C13.0827643 46.28657593 13.0827643 46.28657593 14 44 C14.66 44 15.32 44 16 44 C17.40459731 41.40689727 18.54608353 38.74075463 19.625 36 C19.88539062 35.34 20.14578125 34.68 20.4140625 34 C21.18743426 31.70756838 21.18743426 31.70756838 21 28 C21 25.66666667 21 23.33333333 21 21 C20.34 21 19.68 21 19 21 C19 20.01 19 19.02 19 18 C18.34 18 17.68 18 17 18 C17 17.01 17 16.02 17 15 C15.700625 14.87625 14.40125 14.7525 13.0625 14.625 C10.84765625 14.4140625 10.84765625 14.4140625 9 14 C8.505 13.01 8.505 13.01 8 12 C6.453125 12.061875 6.453125 12.061875 4.875 12.125 C1.13170373 12.00424851 -1.53734547 11.35127982 -5 10 C-4.67 11.32 -4.34 12.64 -4 14 C-6.97 13.505 -6.97 13.505 -10 13 C-10 12.34 -10 11.68 -10 11 C-13.3 10.67 -16.6 10.34 -20 10 C-20 10.66 -20 11.32 -20 12 C-21.32 12.33 -22.64 12.66 -24 13 C-23.61502006 10.76711635 -23.10506663 9.16343698 -21.875 7.25 C-19.00781747 5.33854498 -16.37861637 5.88349599 -13 6 C-11.32442621 5.71479595 -9.65182755 5.40044304 -8 5 C-8 5.99 -8 6.98 -8 8 C-5.36 7.67 -2.72 7.34 0 7 C0 6.34 0 5.68 0 5 C-0.66 5 -1.32 5 -2 5 C-1.34 3.35 -0.68 1.7 0 0 Z " transform="translate(55,24)" style="fill: #302E25;"/><path d="M0 0 C2.12493141 -0.02693575 4.24995912 -0.04636628 6.375 -0.0625 C7.55835937 -0.07410156 8.74171875 -0.08570312 9.9609375 -0.09765625 C13 0 13 0 15 1 C14.67 2.32 14.34 3.64 14 5 C14.66 5 15.32 5 16 5 C16 5.66 16 6.32 16 7 C14.02253397 7.73080266 12.01927511 8.39421747 10 9 C9.34 8.67 8.68 8.34 8 8 C8 7.01 8 6.02 8 5 C7.319375 5.350625 6.63875 5.70125 5.9375 6.0625 C2.2912211 7.22620603 -0.28489978 6.72845102 -4 6 C-4.33 6.99 -4.66 7.98 -5 9 C-5.99 9.495 -5.99 9.495 -7 10 C-7.33 10.99 -7.66 11.98 -8 13 C-6.68 12.67 -5.36 12.34 -4 12 C-4 11.34 -4 10.68 -4 10 C2.625 9.875 2.625 9.875 6 11 C6 11.66 6 12.32 6 13 C8.97 13.495 8.97 13.495 12 14 C12.042721 15.66611905 12.04063832 17.33382885 12 19 C10.40656017 20.59343983 8.76821209 20.20870742 6.5625 20.25 C1.17113533 20.19562024 -4.11954704 19.39585873 -9 17 C-9.33 16.01 -9.66 15.02 -10 14 C-11.4216319 17.3171411 -12.39009109 20.44219804 -13 24 C-13.66 23.34 -14.32 22.68 -15 22 C-15 25.63 -15 29.26 -15 33 C-14.34 33 -13.68 33 -13 33 C-13.66 34.32 -14.32 35.64 -15 37 C-19.42863049 31.74100129 -19.41568281 27.70865867 -19 21 C-19 20.01 -19 19.02 -19 18 C-18.34 18 -17.68 18 -17 18 C-16.9175 17.38125 -16.835 16.7625 -16.75 16.125 C-16 14 -16 14 -14 12.9375 C-13.34 12.628125 -12.68 12.31875 -12 12 C-11.67 11.01 -11.34 10.02 -11 9 C-9.35 8.67 -7.7 8.34 -6 8 C-6.33 7.01 -6.66 6.02 -7 5 C-2.25 2 -2.25 2 0 2 C0 1.34 0 0.68 0 0 Z " transform="translate(39,24)" style="fill: #3C3D34;"/><path d="M0 0 C1.33659221 2.31675983 2.00079436 4.00683148 2.3125 6.6875 C3.50445979 12.43057897 6.07637748 17.71758498 11 21 C13.50896686 21.45601261 13.50896686 21.45601261 16.1875 21.625 C17.08855469 21.69976562 17.98960938 21.77453125 18.91796875 21.8515625 C19.60503906 21.90054688 20.29210937 21.94953125 21 22 C21 21.34 21 20.68 21 20 C24.96 20 28.92 20 33 20 C33.66 18.68 34.32 17.36 35 16 C35.66 16.33 36.32 16.66 37 17 C37 17.99 37 18.98 37 20 C38.32 20.66 39.64 21.32 41 22 C41 23.98 41 25.96 41 28 C35.61599863 31.15348652 30.03274847 30.95091429 24 30 C18.37907524 27.94198972 13.17630684 24.97687479 8 22 C9.32 23.32 10.64 24.64 12 26 C11.34 26.33 10.68 26.66 10 27 C7.4375 25.875 7.4375 25.875 5 24 C4.375 21.4375 4.375 21.4375 4 19 C3.01 18.34 2.02 17.68 1 17 C1.33 15.68 1.66 14.36 2 13 C1.34 13 0.68 13 0 13 C-1.18306728 10.63386544 -1.13354608 9.13219264 -1.125 6.5 C-1.12757812 5.7059375 -1.13015625 4.911875 -1.1328125 4.09375 C-1 2 -1 2 0 0 Z " transform="translate(24,44)" style="fill: #625339;"/><path d="M0 0 C0.66 0.66 1.32 1.32 2 2 C1.82819316 7.8414326 -2.00832232 12.97670839 -5.96875 17 C-14.44544971 24.59107437 -14.44544971 24.59107437 -20.765625 24.375 C-30.21205175 22.78958572 -40.41743848 17.76547921 -48 12 C-48 11.01 -48 10.02 -48 9 C-47.27554688 9.39832031 -46.55109375 9.79664062 -45.8046875 10.20703125 C-43.80690596 11.30181553 -41.80405418 12.38738589 -39.796875 13.46484375 C-37 15 -37 15 -34.125 16.875 C-27.81735683 19.14575154 -20.01229428 19.16622087 -13.75 16.625 C-10.9172357 15.28657593 -10.9172357 15.28657593 -10 13 C-9.34 13 -8.68 13 -8 13 C-6.20586704 9.68775454 -5.03842702 6.27835523 -3.87890625 2.70703125 C-3 1 -3 1 0 0 Z " transform="translate(79,55)" style="fill: #2F2D27;"/><path d="M0 0 C-1.98 0.99 -3.96 1.98 -6 3 C-6 3.99 -6 4.98 -6 6 C-7.32 6 -8.64 6 -10 6 C-10.433125 7.175625 -10.433125 7.175625 -10.875 8.375 C-12 11 -12 11 -14 13 C-14.66 13 -15.32 13 -16 13 C-17.10836423 14.88316159 -17.10836423 14.88316159 -18 17 C-17.67 17.66 -17.34 18.32 -17 19 C-17.66 19 -18.32 19 -19 19 C-18.91276622 20.77174819 -18.80458345 22.54247377 -18.6875 24.3125 C-18.60048828 25.79169922 -18.60048828 25.79169922 -18.51171875 27.30078125 C-17.94340105 30.29854867 -17.23500395 31.0526105 -15 33 C-15 33.66 -15 34.32 -15 35 C-13.35 35.66 -11.7 36.32 -10 37 C-10 37.66 -10 38.32 -10 39 C-14.9723422 37.50829734 -19.41845739 35.39542583 -24 33 C-24.62192931 24.1824245 -24.35789936 17.28475412 -19 10 C-14.35883256 4.91640351 -7.39224359 -2.4640812 0 0 Z " transform="translate(39,26)" style="fill: #24221E;"/><path d="M0 0 C1.65 0.33 3.3 0.66 5 1 C5.1953125 3.05078125 5.390625 5.1015625 5.5859375 7.15234375 C5.72257812 7.76207031 5.85921875 8.37179688 6 9 C6.66 9.33 7.32 9.66 8 10 C8 10.66 8 11.32 8 12 C7.34 12 6.68 12 6 12 C6 16.29 6 20.58 6 25 C0 26 0 26 -1.875 24.875 C-3.33772308 22.43712819 -3.29431219 20.7959658 -3 18 C-2.67 17.67 -2.34 17.34 -2 17 C-2.25392418 14.63879703 -2.57798123 12.2849461 -2.9375 9.9375 C-3.13214844 8.64714844 -3.32679687 7.35679688 -3.52734375 6.02734375 C-3.68332031 5.02832031 -3.83929688 4.02929688 -4 3 C-3.01 2.67 -2.02 2.34 -1 2 C-0.67 1.34 -0.34 0.68 0 0 Z " transform="translate(66,39)" style="fill: #745E2B;"/><path d="M0 0 C6.625 -0.125 6.625 -0.125 10 1 C10 1.66 10 2.32 10 3 C12.97 3.495 12.97 3.495 16 4 C16.042721 5.66611905 16.04063832 7.33382885 16 9 C14.39673958 10.60326042 12.71699591 10.24749549 10.5 10.3125 C4.94744771 10.28849761 0.82893843 8.61275896 -4 6 C-3.34 4.68 -2.68 3.36 -2 2 C-1.34 2 -0.68 2 0 2 C0 1.34 0 0.68 0 0 Z " transform="translate(35,34)" style="fill: #A1A59C;"/><path d="M0 0 C0.99 0.33 1.98 0.66 3 1 C3 1.99 3 2.98 3 4 C4.32 4.66 5.64 5.32 7 6 C7 7.98 7 9.96 7 12 C2.38 12.33 -2.24 12.66 -7 13 C-7.33 12.01 -7.66 11.02 -8 10 C-8.66 9.67 -9.32 9.34 -10 9 C-8.3125 6.5 -8.3125 6.5 -6 4 C-3.25 3.6875 -3.25 3.6875 -1 4 C-0.67 2.68 -0.34 1.36 0 0 Z " transform="translate(58,60)" style="fill: #7F6B40;"/><path d="M0 0 C1.19109375 -0.00386719 1.19109375 -0.00386719 2.40625 -0.0078125 C4.5 0.125 4.5 0.125 6.5 1.125 C6.17 2.445 5.84 3.765 5.5 5.125 C6.16 5.125 6.82 5.125 7.5 5.125 C7.5 5.785 7.5 6.445 7.5 7.125 C5.52253397 7.85580266 3.51927511 8.51921747 1.5 9.125 C0.84 8.795 0.18 8.465 -0.5 8.125 C-0.5 7.135 -0.5 6.145 -0.5 5.125 C-1.5828125 5.62 -1.5828125 5.62 -2.6875 6.125 C-5.51697427 7.13103529 -7.52895466 7.29477402 -10.5 7.125 C-10.17 5.805 -9.84 4.485 -9.5 3.125 C-8.51 3.125 -7.52 3.125 -6.5 3.125 C-6.5 2.465 -6.5 1.805 -6.5 1.125 C-4.13386544 -0.05806728 -2.63219264 -0.00854608 0 0 Z " transform="translate(47.5,23.875)" style="fill: #494B40;"/><path d="M0 0 C1.65 0.33 3.3 0.66 5 1 C5 4.63 5 8.26 5 12 C3.35 12.33 1.7 12.66 0 13 C-0.67154933 11.71086513 -1.33708859 10.41859796 -2 9.125 C-2.37125 8.40570313 -2.7425 7.68640625 -3.125 6.9453125 C-4 5 -4 5 -4 3 C-3.01 2.67 -2.02 2.34 -1 2 C-0.67 1.34 -0.34 0.68 0 0 Z " transform="translate(66,39)" style="fill: #886E37;"/><path d="M0 0 C1.31958431 2.28727946 1.9977907 3.98144186 2.3125 6.625 C3.30983015 11.52098438 5.65387836 15.61941863 8 20 C7.34 20 6.68 20 6 20 C6.61875 20.61875 7.2375 21.2375 7.875 21.875 C9.25 23.25 10.625 24.625 12 26 C11.34 26.33 10.68 26.66 10 27 C7.4375 25.875 7.4375 25.875 5 24 C4.375 21.4375 4.375 21.4375 4 19 C3.01 18.34 2.02 17.68 1 17 C1.33 15.68 1.66 14.36 2 13 C1.34 13 0.68 13 0 13 C-1.18306728 10.63386544 -1.13354608 9.13219264 -1.125 6.5 C-1.12757812 5.7059375 -1.13015625 4.911875 -1.1328125 4.09375 C-1 2 -1 2 0 0 Z " transform="translate(24,44)" style="fill: #6A674E;"/><path d="M0 0 C-0.3312085 0.56315918 -0.66241699 1.12631836 -1.00366211 1.70654297 C-2.14012638 4.32255507 -2.14776931 5.86963894 -1.94140625 8.6953125 C-1.88533203 9.57574219 -1.82925781 10.45617188 -1.77148438 11.36328125 C-1.70251953 12.27464844 -1.63355469 13.18601562 -1.5625 14.125 C-1.43396454 15.93976801 -1.31003648 17.75487008 -1.19140625 19.5703125 C-1.13154541 20.37227051 -1.07168457 21.17422852 -1.01000977 22.00048828 C-1 24 -1 24 -2 26 C-2.99 26.33 -3.98 26.66 -5 27 C-5.33 27.66 -5.66 28.32 -6 29 C-7.65 29 -9.3 29 -11 29 C-10.01 27.515 -10.01 27.515 -9 26 C-8.34 26 -7.68 26 -7 26 C-6.690625 25.360625 -6.38125 24.72125 -6.0625 24.0625 C-5 22 -5 22 -4 21 C-3.24875536 13.84872891 -4.60287483 7.70624303 -7 1 C-4.53721199 -0.231394 -2.7204945 -0.07159196 0 0 Z " transform="translate(63,35)" style="fill: #3D382D;"/><path d="M0 0 C0 0.99 0 1.98 0 3 C0.66 3 1.32 3 2 3 C2 3.66 2 4.32 2 5 C-2.97063121 5.91297308 -7.02936879 5.91297308 -12 5 C-12 5.66 -12 6.32 -12 7 C-13.32 7.33 -14.64 7.66 -16 8 C-15.61502006 5.76711635 -15.10506663 4.16343698 -13.875 2.25 C-11.02062332 0.34708221 -8.34426385 0.87613838 -5 1 C-4 0 -4 0 0 0 Z " transform="translate(47,29)" style="fill: #232519;"/><path d="M0 0 C0.042721 1.66611905 0.04063832 3.33382885 0 5 C-0.33 5.33 -0.66 5.66 -1 6 C-1.07271741 8.35313555 -1.08370868 10.70833668 -1.0625 13.0625 C-1.05347656 14.35285156 -1.04445313 15.64320312 -1.03515625 16.97265625 C-1.02355469 17.97167969 -1.01195312 18.97070312 -1 20 C-0.34 20 0.32 20 1 20 C0.34 21.32 -0.32 22.64 -1 24 C-5.42863049 18.74100129 -5.41568281 14.70865867 -5 8 C-5 7.01 -5 6.02 -5 5 C-4.34 5 -3.68 5 -3 5 C-2.7834375 4.0409375 -2.7834375 4.0409375 -2.5625 3.0625 C-1.72727273 0 -1.72727273 0 0 0 Z " transform="translate(25,37)" style="fill: #4C3E2E;"/><path d="M0 0 C1.89569691 3.28587465 2.76762265 6.20450322 3 10 C1.6875 12.5625 1.6875 12.5625 0 15 C-0.33 15.86625 -0.66 16.7325 -1 17.625 C-2.01781114 20.04230145 -3.03462304 21.30262899 -5 23 C-4.76990234 22.21882813 -4.76990234 22.21882813 -4.53515625 21.421875 C-3.86017489 18.36721485 -3.65588882 15.36984029 -3.4375 12.25 C-3.35371094 11.07953125 -3.26992187 9.9090625 -3.18359375 8.703125 C-3.12300781 7.81109375 -3.06242187 6.9190625 -3 6 C-2.01 6 -1.02 6 0 6 C0 4.02 0 2.04 0 0 Z " transform="translate(75,45)" style="fill: #58482F;"/><path d="M0 0 C9 4.5 9 4.5 18 9 C20.204364 9.22950319 22.41392173 9.41075933 24.625 9.5625 C25.81351563 9.64628906 27.00203125 9.73007813 28.2265625 9.81640625 C29.14179687 9.87699219 30.05703125 9.93757813 31 10 C31 10.33 31 10.66 31 11 C29.01432292 11.22786458 27.02864583 11.45572917 25.04296875 11.68359375 C22.80603607 11.97170735 22.80603607 11.97170735 20 13 C17.26002968 11.83954198 14.69116976 10.6243448 12.0625 9.25 C10.98838867 8.70859375 10.98838867 8.70859375 9.89257812 8.15625 C2.75886851 4.50675259 2.75886851 4.50675259 0 2 C0 1.34 0 0.68 0 0 Z " transform="translate(30,64)" style="fill: #453C29;"/><path d="M0 0 C0.33 1.32 0.66 2.64 1 4 C3.31 4.33 5.62 4.66 8 5 C7.01 5.66 6.02 6.32 5 7 C5 6.34 5 5.68 5 5 C3.02 5.33 1.04 5.66 -1 6 C-0.90460937 6.68707031 -0.80921875 7.37414063 -0.7109375 8.08203125 C-0.60007812 8.98308594 -0.48921875 9.88414063 -0.375 10.8125 C-0.25898438 11.70582031 -0.14296875 12.59914063 -0.0234375 13.51953125 C0 16 0 16 -2 19 C-4.36303263 12.96113884 -4.0296985 8.16802822 -2 2 C-1.34 1.34 -0.68 0.68 0 0 Z " transform="translate(29,37)" style="fill: #2A2319;"/><path d="M0 0 C2 1 2 1 2 1 Z M-1 1 C-0.67 1 -0.34 1 0 1 C0.33 3.31 0.66 5.62 1 8 C3.31 8 5.62 8 8 8 C6.6875 11.4375 6.6875 11.4375 5 15 C4.01 15.33 3.02 15.66 2 16 C1.566875 14.2984375 1.566875 14.2984375 1.125 12.5625 C0.75375 11.386875 0.3825 10.21125 0 9 C-0.66 8.67 -1.32 8.34 -2 8 C-1.67 5.69 -1.34 3.38 -1 1 Z " transform="translate(63,56)" style="fill: #655432;"/><path d="M0 0 C-2.81152696 3.22804947 -4.67854758 4.6588327 -9 5 C-9.66 4.67 -10.32 4.34 -11 4 C-11 4.66 -11 5.32 -11 6 C-14.3 6 -17.6 6 -21 6 C-21.33 4.68 -21.66 3.36 -22 2 C-21.67 2.66 -21.34 3.32 -21 4 C-18.89455987 3.71767279 -16.79066411 3.4238102 -14.6875 3.125 C-13.51574219 2.96257813 -12.34398437 2.80015625 -11.13671875 2.6328125 C-6.77899549 1.75367032 -4.62119727 -0.24979445 0 0 Z " transform="translate(56,60)" style="fill: #29231A;"/><path d="M0 0 C0.66 0 1.32 0 2 0 C1.5359375 0.86625 1.5359375 0.86625 1.0625 1.75 C0.07416636 3.84294184 -0.5168613 5.74535275 -1 8 C-0.34 8 0.32 8 1 8 C1.96070434 10.88211302 2.10581883 12.69850044 2.0625 15.6875 C2.05347656 16.49574219 2.04445313 17.30398437 2.03515625 18.13671875 C2.02355469 18.75160156 2.01195313 19.36648437 2 20 C1.01 20 0.02 20 -1 20 C-1.22162857 17.22964291 -1.42779249 14.45961005 -1.625 11.6875 C-1.68945312 10.90181641 -1.75390625 10.11613281 -1.8203125 9.30664062 C-1.871875 8.54931641 -1.9234375 7.79199219 -1.9765625 7.01171875 C-2.02893066 6.31522217 -2.08129883 5.61872559 -2.13525391 4.90112305 C-2 3 -2 3 0 0 Z " transform="translate(62,36)" style="fill: #594935;"/><path d="M0 0 C0.99 0 1.98 0 3 0 C3 0.66 3 1.32 3 2 C5.97 2.495 5.97 2.495 9 3 C9.042721 4.66611905 9.04063832 6.33382885 9 8 C8 9 8 9 5.71484375 9.09765625 C4.34005859 9.08025391 4.34005859 9.08025391 2.9375 9.0625 C2.01839844 9.05347656 1.09929688 9.04445313 0.15234375 9.03515625 C-0.55792969 9.02355469 -1.26820312 9.01195312 -2 9 C-2 8.67 -2 8.34 -2 8 C-0.02 8 1.96 8 4 8 C4.33 7.34 4.66 6.68 5 6 C5.33 5.67 5.66 5.34 6 5 C5.01 5 4.02 5 3 5 C3 4.34 3 3.68 3 3 C2.01 3 1.02 3 0 3 C0 2.01 0 1.02 0 0 Z " transform="translate(42,35)" style="fill: #80857B;"/><path d="M0 0 C1.45823212 -0.0270043 2.91660675 -0.04639787 4.375 -0.0625 C5.18710937 -0.07410156 5.99921875 -0.08570312 6.8359375 -0.09765625 C9 0 9 0 11 1 C10.67 1.99 10.34 2.98 10 4 C6.37 4 2.74 4 -1 4 C-0.67 2.68 -0.34 1.36 0 0 Z " transform="translate(43,24)" style="fill: #CFD0C7;"/><path d="M0 0 C2.28062828 3.42094242 2.21925007 4.68187222 2.125 8.6875 C2.10695313 9.68136719 2.08890625 10.67523438 2.0703125 11.69921875 C2.03550781 12.83810547 2.03550781 12.83810547 2 14 C1.01 14 0.02 14 -1 14 C-1.144375 13.38125 -1.28875 12.7625 -1.4375 12.125 C-1.93152225 9.96741678 -1.93152225 9.96741678 -3 8 C-2.44140625 6.0546875 -2.44140625 6.0546875 -1.5625 3.875 C-1.27503906 3.15054688 -0.98757812 2.42609375 -0.69140625 1.6796875 C-0.46324219 1.12539063 -0.23507813 0.57109375 0 0 Z " transform="translate(79,43)" style="fill: #21261B;"/><path d="M0 0 C4.62 0.66 9.24 1.32 14 2 C13.67 3.65 13.34 5.3 13 7 C8.1725201 5.58707905 4.2837641 3.57025846 0 1 C0 0.67 0 0.34 0 0 Z " transform="translate(31,64)" style="fill: #504937;"/><path d="M0 0 C2.97 0.33 5.94 0.66 9 1 C9 1.99 9 2.98 9 4 C4.71 4 0.42 4 -4 4 C-4 3.34 -4 2.68 -4 2 C-2.68 2 -1.36 2 0 2 C0 1.34 0 0.68 0 0 Z " transform="translate(56,68)" style="fill: #7D6733;"/><path d="M0 0 C1.32 0 2.64 0 4 0 C3.6875 1.9375 3.6875 1.9375 3 4 C2.01 4.33 1.02 4.66 0 5 C-0.33 5.66 -0.66 6.32 -1 7 C-2.65 7 -4.3 7 -6 7 C-5.34 6.01 -4.68 5.02 -4 4 C-3.34 4 -2.68 4 -2 4 C-1.34 2.68 -0.68 1.36 0 0 Z " transform="translate(58,57)" style="fill: #4C422D;"/><path d="M0 0 C2 1.375 2 1.375 4 3 C4 3.66 4 4.32 4 5 C6.475 5.99 6.475 5.99 9 7 C9 7.66 9 8.32 9 9 C5.59687262 7.94124926 2.98646769 6.99097846 0 5 C-0.1875 2.375 -0.1875 2.375 0 0 Z " transform="translate(20,56)" style="fill: #33301B;"/><path d="M0 0 C0.3732988 4.35515272 -0.72317708 6.35708332 -3 10 C-3.70670728 12.69254991 -3.70670728 12.69254991 -4 15 C-4.33 15 -4.66 15 -5 15 C-5 11.66666667 -5 8.33333333 -5 5 C-4.34 5 -3.68 5 -3 5 C-2.7834375 4.0409375 -2.7834375 4.0409375 -2.5625 3.0625 C-1.72727273 0 -1.72727273 0 0 0 Z " transform="translate(25,37)" style="fill: #413428;"/><path d="M0 0 C2.32617985 3.63465602 2.31404687 6.76036719 2 11 C1.34 11.66 0.68 12.32 0 13 C-1.18306728 10.63386544 -1.13354608 9.13219264 -1.125 6.5 C-1.12757812 5.7059375 -1.13015625 4.911875 -1.1328125 4.09375 C-1 2 -1 2 0 0 Z " transform="translate(24,44)" style="fill: #786453;"/><path d="M0 0 C0.66 0.33 1.32 0.66 2 1 C1.525625 2.051875 1.05125 3.10375 0.5625 4.1875 C-0.69323741 7.10175851 -1.52234381 9.84746914 -2 13 C-2.99 12.34 -3.98 11.68 -5 11 C-4.26023275 7.1532103 -2.81328141 2.81328141 0 0 Z " transform="translate(28,35)" style="fill: #544A3B;"/><path d="M0 0 C0 0.66 0 1.32 0 2 C-1.97746603 2.73080266 -3.98072489 3.39421747 -6 4 C-6.66 3.67 -7.32 3.34 -8 3 C-8 2.01 -8 1.02 -8 0 C-5.13822943 -1.43088528 -3.06624227 -0.59991697 0 0 Z " transform="translate(55,29)" style="fill: #43443B;"/><path d="M0 0 C4.29 2.31 8.58 4.62 13 7 C9 8 9 8 6.640625 6.85546875 C5.85171875 6.30503906 5.0628125 5.75460938 4.25 5.1875 C3.45078125 4.64480469 2.6515625 4.10210937 1.828125 3.54296875 C1.22484375 3.03378906 0.6215625 2.52460937 0 2 C0 1.34 0 0.68 0 0 Z " transform="translate(30,64)" style="fill: #302B1D;"/><path d="M0 0 C1.88638485 3.26973374 2.75896128 6.22372667 3 10 C1.5625 11.875 1.5625 11.875 0 13 C-0.83796731 8.34462607 -1.0161692 4.62921525 0 0 Z " transform="translate(75,45)" style="fill: #454027;"/><path d="M0 0 C1.5159375 0.2475 1.5159375 0.2475 3.0625 0.5 C6.76262933 0.96985769 10.27607391 1.07599849 14 1 C12 3 12 3 8.9609375 3.1953125 C7.77757812 3.17210938 6.59421875 3.14890625 5.375 3.125 C4.18648437 3.10695313 2.99796875 3.08890625 1.7734375 3.0703125 C0.85820313 3.04710938 -0.05703125 3.02390625 -1 3 C-0.67 2.01 -0.34 1.02 0 0 Z " transform="translate(49,71)" style="fill: #5C5135;"/><path d="M0 0 C1.65 0.33 3.3 0.66 5 1 C5 1.66 5 2.32 5 3 C3.35 3 1.7 3 0 3 C-0.66 4.65 -1.32 6.3 -2 8 C-4 5 -4 5 -4 3 C-3.01 2.67 -2.02 2.34 -1 2 C-0.67 1.34 -0.34 0.68 0 0 Z " transform="translate(66,39)" style="fill: #7A623F;"/><path d="M0 0 C1.98 0.66 3.96 1.32 6 2 C6 2.99 6 3.98 6 5 C4.02 5.33 2.04 5.66 0 6 C0 4.02 0 2.04 0 0 Z " transform="translate(66,59)" style="fill: #836E40;"/><path d="M0 0 C0.33 0.66 0.66 1.32 1 2 C1.66 2 2.32 2 3 2 C2.34 3.98 1.68 5.96 1 8 C0.34 8 -0.32 8 -1 8 C-1.33 5.69 -1.66 3.38 -2 1 C-1.34 0.67 -0.68 0.34 0 0 Z " transform="translate(65,56)" style="fill: #715A2D;"/><path d="M0 0 C2.97 0.495 2.97 0.495 6 1 C6 1.99 6 2.98 6 4 C3.69 4 1.38 4 -1 4 C-0.67 2.68 -0.34 1.36 0 0 Z " transform="translate(59,65)" style="fill: #8F7340;"/><path d="M0 0 C2 1 2 1 2 1 Z M-1 1 C-0.67 1 -0.34 1 0 1 C0.33 3.31 0.66 5.62 1 8 C1.66 8 2.32 8 3 8 C2.67 8.99 2.34 9.98 2 11 C0.68 10.01 -0.64 9.02 -2 8 C-1.67 5.69 -1.34 3.38 -1 1 Z " transform="translate(63,56)" style="fill: #644A20;"/><path d="M0 0 C1.2065625 0.0309375 1.2065625 0.0309375 2.4375 0.0625 C2.7675 0.7225 3.0975 1.3825 3.4375 2.0625 C0.79011084 3.5231285 -0.45698334 4.0625 -3.5625 4.0625 C-3.8925 4.7225 -4.2225 5.3825 -4.5625 6.0625 C-3.48963568 0.08511307 -3.48963568 0.08511307 0 0 Z " transform="translate(65.5625,37.9375)" style="fill: #63583D;"/><path d="M0 0 C-1.98 0.99 -3.96 1.98 -6 3 C-6 3.99 -6 4.98 -6 6 C-6.99 6 -7.98 6 -9 6 C-8.8125 3.625 -8.8125 3.625 -8 1 C-4.72494404 -0.89608503 -3.64512471 -1.21504157 0 0 Z " transform="translate(39,26)" style="fill: #282921;"/><path d="M0 0 C1.32 0 2.64 0 4 0 C3.67 1.65 3.34 3.3 3 5 C1.68 5 0.36 5 -1 5 C-0.67 3.35 -0.34 1.7 0 0 Z " transform="translate(67,47)" style="fill: #9C8146;"/><path d="M0 0 C2.31 0 4.62 0 7 0 C4 2 4 2 2 2 C2 2.66 2 3.32 2 4 C0.35 4 -1.3 4 -3 4 C-2.67 3.34 -2.34 2.68 -2 2 C-1.34 2 -0.68 2 0 2 C0 1.34 0 0.68 0 0 Z " transform="translate(35,34)" style="fill: #77796D;"/><path d="M0 0 C0.66 1.65 1.32 3.3 2 5 C-0.31 4.34 -2.62 3.68 -5 3 C-5 2.34 -5 1.68 -5 1 C-3 0 -3 0 0 0 Z " transform="translate(42,35)" style="fill: #9C9E92;"/><path d="M0 0 C1.65 0.33 3.3 0.66 5 1 C3.68 2.32 2.36 3.64 1 5 C1.33 5.66 1.66 6.32 2 7 C1.01 7 0.02 7 -1 7 C-0.67 4.69 -0.34 2.38 0 0 Z " transform="translate(48,64)" style="fill: #69583F;"/><path d="M0 0 C1.45823212 -0.0270043 2.91660675 -0.04639787 4.375 -0.0625 C5.18710937 -0.07410156 5.99921875 -0.08570312 6.8359375 -0.09765625 C9 0 9 0 11 1 C10.67 1.99 10.34 2.98 10 4 C9.34 4 8.68 4 8 4 C8 3.01 8 2.02 8 1 C5.36 1 2.72 1 0 1 C0 0.67 0 0.34 0 0 Z " transform="translate(43,24)" style="fill: #9E9F98;"/></svg>